P3
# 8x8 simple pattern
8 8
255
200 200 200 200 200 200 200 200 200 200 200 200 200 200 200 200 200 200 200 200 200 200 200 200
200 200 200 200 90 90 90 200 200 200 200 200 90 90 90 200 200 200 200 200 90 90 90 200
200 200 200 200 90 90 90 200 200 200 200 200 90 90 90 200 200 200 200 200 90 90 90 200
200 200 200 200 200 200 200 200 200 200 200 200 200 200 200 200 200 200 200 200 200 200 200 200
200 200 200 200 90 90 90 200 200 200 200 200 90 90 90 200 200 200 200 200 90 90 90 200
200 200 200 200 90 90 90 200 200 200 200 200 90 90 90 200 200 200 200 200 90 90 90 200
200 200 200 200 200 200 200 200 200 200 200 200 200 200 200 200 200 200 200 200 200 200 200 200
200 200 200 200 200 200 200 200 200 200 200 200 200 200 200 200 200 200 200 200 200 200 200 200

